<?xml version="1.0" encoding="UTF-8" standalone="no"?>
<!DOCTYPE svg PUBLIC "-//W3C//DTD SVG 1.1//EN" "http://www.w3.org/Graphics/SVG/1.1/DTD/svg11.dtd">
<svg width="100%" height="100%" viewBox="0 0 32 32" version="1.1" xmlns="http://www.w3.org/2000/svg" xmlns:xlink="http://www.w3.org/1999/xlink" xml:space="preserve" xmlns:serif="http://www.serif.com/" style="fill-rule:evenodd;clip-rule:evenodd;stroke-linejoin:round;stroke-miterlimit:2;">
    <g transform="matrix(1,0,0,1,-36,-10)">
        <g transform="matrix(2.00072,0,0,2.00072,26.5641,3.16325)">
            <path d="M20.728,4.938L20.728,17.9C20.728,18.739 20.047,19.421 19.207,19.421L6.246,19.421C5.406,19.421 4.725,18.739 4.725,17.9L4.725,4.938C4.725,4.099 5.406,3.417 6.246,3.417L19.207,3.417C20.047,3.417 20.728,4.099 20.728,4.938Z" style="fill:rgb(23,93,252);"/>
            <clipPath id="_clip1">
                <path d="M20.728,4.938L20.728,17.9C20.728,18.739 20.047,19.421 19.207,19.421L6.246,19.421C5.406,19.421 4.725,18.739 4.725,17.9L4.725,4.938C4.725,4.099 5.406,3.417 6.246,3.417L19.207,3.417C20.047,3.417 20.728,4.099 20.728,4.938Z"/>
            </clipPath>
            <g clip-path="url(#_clip1)">
                <g transform="matrix(1.25889,0,0,1.25889,-8.14493,-22.4237)">
                    <g transform="matrix(14.2983,0,0,14.2983,21.1288,30.1324)">
                    </g>
                    <text x="13.33px" y="30.132px" style="font-family:'Micro5-Regular', 'Micro 5';font-size:14.298px;fill:white;">M</text>
                </g>
            </g>
        </g>
    </g>
</svg>
